# xmcd
#
# Track frame offsets:
#	150
#	9740
#	20952
#	30765
#	40619
#	51647
#	61252
#	72150
#	82051
#	92469
#	103407
#	113108
#	123771
#	134015
#	143023
#	151433
#	160976
#	171122
#	181235
#	191081
#	200941
#	212190
#	219999
#	228219
#	237295
#	247249
#	256633
#	266432
#	276876
#	290235
#	302403
#	314069
#	326554
#	337768
#	348684
#
# Disc length: 4790 seconds
#
# Revision: 2
# Processed by: cddbd v1.5.2PL0 Copyright (c) Steve Scherf et al.
# Submitted via: EasyCDDAExtractor 10.0.2.1
#
DISCID=1312b423
DTITLE=Charlie Walker - Pick Me Up On Your Way Down - CD 3
DYEAR=1999
DGENRE=Country
TTITLE0=Honky Tonk Song
TTITLE1=The Band Keeps Playing On
TTITLE2=Every Good Reason
TTITLE3=Shoes Of A Fool
TTITLE4=Walking The Floor Over You
TTITLE5=Foggy River
TTITLE6=Born To Lose
TTITLE7=You're Still On My Mind
TTITLE8=My Shoes Keep Walking Back To You
TTITLE9=I'll Go Down Swinging
TTITLE10=Drivin' Nails In My Coffin
TTITLE11=Gonna Buy Me A Jukebox
TTITLE12=I Can Take Anything
TTITLE13=I'd Rather Switch Than Fight
TTITLE14=Fast Way Of Livin'
TTITLE15=Hello Bill
TTITLE16=Bubbles In My Beer
TTITLE17=Crazy Arms
TTITLE18=Little Old Heartache Maker Me
TTITLE19=Wild As A Wildcat
TTITLE20=Out Of A Honky Tonk
TTITLE21=Try Me One More Time
TTITLE22=The Man In The Little White Suit
TTITLE23=Memory Killer
TTITLE24=He's A Jolly Good Fellow
TTITLE25=A Dozen More Like You
TTITLE26=Back In My Baby's Arms Again
TTITLE27=I'm Gonna Live (As Long As I Can)
TTITLE28=Little Ol' Winedrinker Me
TTITLE29=Think Of Me
TTITLE30=Daddy's Coming Home (Next Week)
TTITLE31=I'm Ashamed Of You
TTITLE32=I'm Gonna Hang Up My Gloves
TTITLE33=You Lied To Me
TTITLE34=The Town That Never Sleeps
EXTD=
EXTT0=
EXTT1=
EXTT2=
EXTT3=
EXTT4=
EXTT5=
EXTT6=
EXTT7=
EXTT8=
EXTT9=
EXTT10=
EXTT11=
EXTT12=
EXTT13=
EXTT14=
EXTT15=
EXTT16=
EXTT17=
EXTT18=
EXTT19=
EXTT20=
EXTT21=
EXTT22=
EXTT23=
EXTT24=
EXTT25=
EXTT26=
EXTT27=
EXTT28=
EXTT29=
EXTT30=
EXTT31=
EXTT32=
EXTT33=
EXTT34=
PLAYORDER=
